<svg width="96" height="95" viewBox="0 0 96 95" fill="none" xmlns="http://www.w3.org/2000/svg">
<rect x="0.699951" width="95" height="95" rx="25" fill="#0F69AF"/>
<mask id="path-2-outside-1_44_1346" maskUnits="userSpaceOnUse" x="15.7" y="14" width="65" height="65" fill="black">
<rect fill="white" x="15.7" y="14" width="65" height="65"/>
<path d="M52.1916 15C53.9939 15.57 55.2263 16.6791 55.6114 18.5892C55.75 19.267 55.7654 19.9756 55.7962 20.6688C55.8424 21.6393 55.8578 21.6701 56.7667 21.9782C57.7834 22.3171 58.7539 22.733 59.7089 23.2259C60.0786 23.4108 60.3251 23.3954 60.6332 23.1027C61.1724 22.5944 61.7269 22.1168 62.3123 21.6701C64.207 20.2375 66.4715 20.3145 68.1967 21.9474C69.7372 23.3954 71.216 24.8896 72.6794 26.43C74.3431 28.1861 74.3893 30.5738 72.8643 32.4685C72.4329 33.0077 71.9708 33.5469 71.5087 34.0552C71.2622 34.3171 71.216 34.5481 71.3854 34.8716C71.9554 35.9499 72.4175 37.059 72.7872 38.2144C72.9105 38.5687 73.1107 38.7535 73.4958 38.7689C74.2507 38.8151 75.0055 38.8768 75.7603 38.9692C78.0247 39.2311 79.673 41.0642 79.6884 43.344C79.7038 45.4544 79.7038 47.5648 79.6884 49.6752C79.673 51.9859 77.9169 53.8498 75.6062 54.0501C74.9901 54.0963 74.3893 54.1425 73.7731 54.1733C73.2494 54.2041 72.9105 54.389 72.741 54.9435C72.4175 56.0218 71.9708 57.0693 71.4471 58.0552C71.2314 58.4403 71.293 58.7022 71.6011 59.0257C72.0941 59.5494 72.5716 60.0886 73.0029 60.6585C74.4509 62.5533 74.3739 64.8177 72.741 66.543C71.2776 68.0988 69.768 69.6085 68.2122 71.0565C66.4715 72.6893 64.0838 72.7356 62.2198 71.2259C61.6653 70.7792 61.1107 70.3017 60.587 69.8241C60.3405 69.5931 60.1249 69.5777 59.8168 69.7317C58.7847 70.2709 57.7064 70.7484 56.5819 71.0873C56.0273 71.2567 55.8424 71.5956 55.827 72.1194C55.7962 72.7356 55.75 73.3517 55.7038 73.9525C55.5189 76.2632 53.6396 78.0193 51.329 78.0347C49.2186 78.0501 47.1082 78.0501 44.9978 78.0347C42.7179 78.0193 40.8848 76.3556 40.6229 74.0911C40.5305 73.3209 40.4689 72.5507 40.4073 71.7651C40.3765 71.4262 40.2224 71.2567 39.9143 71.1489C38.7282 70.7638 37.5729 70.2863 36.4638 69.7009C36.1865 69.5469 35.9862 69.6085 35.7551 69.8087C35.1236 70.3633 34.5074 70.9332 33.8296 71.4262C32.1505 72.6739 29.9015 72.5661 28.3148 71.2259C27.7141 70.7176 27.6062 70.1168 28.0222 69.6239C28.4227 69.1463 28.9772 69.1155 29.6088 69.5777C30.8412 70.4711 31.8424 70.4249 32.9978 69.439C33.691 68.8383 34.3996 68.2375 35.0928 67.6213C35.5703 67.2054 36.0632 67.1284 36.6178 67.4211C38.2044 68.2837 39.8681 68.9769 41.6088 69.4852C42.1017 69.6239 42.4098 69.9628 42.456 70.5019C42.5331 71.4878 42.6409 72.4583 42.6871 73.4442C42.7641 74.9692 43.6884 75.9397 45.2134 75.9705C47.1852 76.0013 49.1415 76.0013 51.1133 75.9705C52.6383 75.9551 53.578 75 53.6704 73.475C53.7166 72.6123 53.7783 71.7651 53.8245 70.9024C53.8553 70.1168 54.2096 69.6239 55.0106 69.4082C56.6127 68.9769 58.1377 68.2837 59.6011 67.5135C60.3867 67.0976 60.7102 67.1592 61.3726 67.7291C62.035 68.3145 62.6974 68.8845 63.3752 69.4544C64.6075 70.5019 65.8245 70.4711 66.9798 69.3312C68.3354 67.991 69.6756 66.6354 71.0311 65.2952C72.1711 64.1399 72.2173 62.923 71.1698 61.706C70.569 61.0128 69.9682 60.3042 69.3521 59.611C68.8899 59.1027 68.8437 58.5789 69.1672 57.9782C69.9991 56.4377 70.6768 54.8357 71.1544 53.1566C71.3546 52.448 71.863 52.2015 72.5254 52.1553C73.3418 52.0937 74.1582 52.0321 74.9747 52.0013C76.7308 51.9243 77.655 51 77.6704 49.2439C77.6858 47.3954 77.6858 45.5469 77.6704 43.7137C77.655 42.0038 76.7308 41.0796 75.0209 40.9872C74.0966 40.9409 73.1878 40.8331 72.2635 40.7715C71.7089 40.7253 71.3392 40.448 71.1852 39.9243C70.6768 38.1682 69.9682 36.4891 69.1056 34.8716C68.8129 34.3325 68.9207 33.8549 69.3213 33.4082C69.9374 32.715 70.5382 32.0218 71.139 31.3132C72.2173 30.0501 72.1711 28.8485 71.0157 27.6624C69.691 26.3222 68.3508 24.9974 67.0106 23.6573C65.8399 22.4865 64.6229 22.4557 63.3598 23.534C62.7282 24.0886 62.0966 24.6277 61.4496 25.1823C60.6794 25.8447 60.4175 25.8909 59.5241 25.4288C58.0761 24.6585 56.5664 23.9961 54.9798 23.5648C54.225 23.3646 53.8861 22.9024 53.8399 22.163C53.7937 21.3466 53.7166 20.5302 53.6858 19.7137C53.6088 17.9268 52.6845 17.0026 50.8976 17.0026C49.0953 17.0026 47.293 17.0026 45.4907 17.0026C43.6884 17.0026 42.7641 17.9114 42.6871 19.6983C42.6409 20.6226 42.5331 21.5315 42.4715 22.4557C42.4252 22.9949 42.148 23.3338 41.6396 23.4878C39.8835 23.9961 38.2044 24.7047 36.587 25.5674C36.0478 25.8601 35.5703 25.7368 35.1236 25.3517C34.3996 24.7202 33.6756 24.0886 32.9361 23.457C31.7962 22.4865 30.5331 22.5173 29.4702 23.5648C28.0684 24.9512 26.682 26.3376 25.2956 27.7394C24.2327 28.8177 24.1865 30.0347 25.1724 31.2054C25.7731 31.9294 26.3893 32.638 27.0209 33.3466C27.483 33.8549 27.56 34.3787 27.2365 34.9795C26.3893 36.5353 25.7115 38.1528 25.2186 39.8626C25.0645 40.4172 24.7102 40.7253 24.1249 40.7715C23.1852 40.8331 22.2455 40.9409 21.3059 40.9872C19.6884 41.0642 18.7333 41.9884 18.7179 43.5751C18.6871 45.516 18.6871 47.4724 18.7179 49.4133C18.7333 50.9538 19.673 51.878 21.2134 51.9859C22.0761 52.0475 22.9387 52.0783 23.786 52.1399C24.7256 52.2169 25.0029 52.4172 25.2802 53.3261C25.7577 54.8973 26.3893 56.4069 27.1595 57.8703C27.6062 58.7176 27.56 59.0103 26.913 59.7497C26.3277 60.4275 25.7269 61.1053 25.1415 61.7985C24.2019 62.923 24.2481 64.1707 25.2648 65.2182C25.8039 65.7728 26.3739 66.3119 26.913 66.8665C27.0671 67.0205 27.2211 67.19 27.3598 67.3748C27.6833 67.837 27.6525 68.2991 27.2673 68.715C26.913 69.1001 26.3431 69.1772 25.9272 68.792C24.8797 67.837 23.7552 66.9435 23.0157 65.7266C22.0607 64.1553 22.1223 62.5379 23.1236 60.9666C23.6011 60.2426 24.2019 59.6264 24.7718 58.9795C25.0491 58.6714 25.1107 58.4249 24.9105 58.0552C24.3713 57.0385 23.9246 55.9756 23.5857 54.8819C23.4317 54.389 23.139 54.1887 22.6614 54.1733C22.0915 54.1425 21.5215 54.0963 20.9516 54.0501C18.872 53.8806 17.4856 52.8177 16.8232 50.8306C16.7924 50.7381 16.7462 50.6457 16.7 50.5533C16.7 47.8421 16.7 45.1463 16.7 42.4352C16.7308 42.3582 16.7616 42.2811 16.7924 42.2041C17.4394 40.2632 18.7487 39.1232 20.8129 38.923C21.5061 38.8614 22.1993 38.7843 22.8925 38.7381C23.2468 38.7227 23.4471 38.5533 23.5549 38.2144C23.94 37.0436 24.4021 35.9037 24.9721 34.81C25.1261 34.5173 25.1107 34.3017 24.8797 34.0398C24.3867 33.516 23.9246 32.9615 23.4779 32.4069C21.9682 30.543 22.0145 28.1707 23.6473 26.43C25.0491 24.905 26.5587 23.3954 28.0992 21.932C29.7937 20.3299 31.9965 20.2221 33.8758 21.5931C34.492 22.0398 35.062 22.5327 35.6011 23.0565C35.94 23.38 36.2327 23.3954 36.6332 23.1951C37.5112 22.7176 38.4509 22.3479 39.3906 22.009C40.3919 21.6547 40.4073 21.6547 40.4381 20.5764C40.4689 19.8216 40.4843 19.0513 40.6691 18.3273C41.1313 16.5404 42.3482 15.5392 44.0427 15.0154C46.7847 15 49.4958 15 52.1916 15Z"/>
</mask>
<path d="M52.1916 15C53.9939 15.57 55.2263 16.6791 55.6114 18.5892C55.75 19.267 55.7654 19.9756 55.7962 20.6688C55.8424 21.6393 55.8578 21.6701 56.7667 21.9782C57.7834 22.3171 58.7539 22.733 59.7089 23.2259C60.0786 23.4108 60.3251 23.3954 60.6332 23.1027C61.1724 22.5944 61.7269 22.1168 62.3123 21.6701C64.207 20.2375 66.4715 20.3145 68.1967 21.9474C69.7372 23.3954 71.216 24.8896 72.6794 26.43C74.3431 28.1861 74.3893 30.5738 72.8643 32.4685C72.4329 33.0077 71.9708 33.5469 71.5087 34.0552C71.2622 34.3171 71.216 34.5481 71.3854 34.8716C71.9554 35.9499 72.4175 37.059 72.7872 38.2144C72.9105 38.5687 73.1107 38.7535 73.4958 38.7689C74.2507 38.8151 75.0055 38.8768 75.7603 38.9692C78.0247 39.2311 79.673 41.0642 79.6884 43.344C79.7038 45.4544 79.7038 47.5648 79.6884 49.6752C79.673 51.9859 77.9169 53.8498 75.6062 54.0501C74.9901 54.0963 74.3893 54.1425 73.7731 54.1733C73.2494 54.2041 72.9105 54.389 72.741 54.9435C72.4175 56.0218 71.9708 57.0693 71.4471 58.0552C71.2314 58.4403 71.293 58.7022 71.6011 59.0257C72.0941 59.5494 72.5716 60.0886 73.0029 60.6585C74.4509 62.5533 74.3739 64.8177 72.741 66.543C71.2776 68.0988 69.768 69.6085 68.2122 71.0565C66.4715 72.6893 64.0838 72.7356 62.2198 71.2259C61.6653 70.7792 61.1107 70.3017 60.587 69.8241C60.3405 69.5931 60.1249 69.5777 59.8168 69.7317C58.7847 70.2709 57.7064 70.7484 56.5819 71.0873C56.0273 71.2567 55.8424 71.5956 55.827 72.1194C55.7962 72.7356 55.75 73.3517 55.7038 73.9525C55.5189 76.2632 53.6396 78.0193 51.329 78.0347C49.2186 78.0501 47.1082 78.0501 44.9978 78.0347C42.7179 78.0193 40.8848 76.3556 40.6229 74.0911C40.5305 73.3209 40.4689 72.5507 40.4073 71.7651C40.3765 71.4262 40.2224 71.2567 39.9143 71.1489C38.7282 70.7638 37.5729 70.2863 36.4638 69.7009C36.1865 69.5469 35.9862 69.6085 35.7551 69.8087C35.1236 70.3633 34.5074 70.9332 33.8296 71.4262C32.1505 72.6739 29.9015 72.5661 28.3148 71.2259C27.7141 70.7176 27.6062 70.1168 28.0222 69.6239C28.4227 69.1463 28.9772 69.1155 29.6088 69.5777C30.8412 70.4711 31.8424 70.4249 32.9978 69.439C33.691 68.8383 34.3996 68.2375 35.0928 67.6213C35.5703 67.2054 36.0632 67.1284 36.6178 67.4211C38.2044 68.2837 39.8681 68.9769 41.6088 69.4852C42.1017 69.6239 42.4098 69.9628 42.456 70.5019C42.5331 71.4878 42.6409 72.4583 42.6871 73.4442C42.7641 74.9692 43.6884 75.9397 45.2134 75.9705C47.1852 76.0013 49.1415 76.0013 51.1133 75.9705C52.6383 75.9551 53.578 75 53.6704 73.475C53.7166 72.6123 53.7783 71.7651 53.8245 70.9024C53.8553 70.1168 54.2096 69.6239 55.0106 69.4082C56.6127 68.9769 58.1377 68.2837 59.6011 67.5135C60.3867 67.0976 60.7102 67.1592 61.3726 67.7291C62.035 68.3145 62.6974 68.8845 63.3752 69.4544C64.6075 70.5019 65.8245 70.4711 66.9798 69.3312C68.3354 67.991 69.6756 66.6354 71.0311 65.2952C72.1711 64.1399 72.2173 62.923 71.1698 61.706C70.569 61.0128 69.9682 60.3042 69.3521 59.611C68.8899 59.1027 68.8437 58.5789 69.1672 57.9782C69.9991 56.4377 70.6768 54.8357 71.1544 53.1566C71.3546 52.448 71.863 52.2015 72.5254 52.1553C73.3418 52.0937 74.1582 52.0321 74.9747 52.0013C76.7308 51.9243 77.655 51 77.6704 49.2439C77.6858 47.3954 77.6858 45.5469 77.6704 43.7137C77.655 42.0038 76.7308 41.0796 75.0209 40.9872C74.0966 40.9409 73.1878 40.8331 72.2635 40.7715C71.7089 40.7253 71.3392 40.448 71.1852 39.9243C70.6768 38.1682 69.9682 36.4891 69.1056 34.8716C68.8129 34.3325 68.9207 33.8549 69.3213 33.4082C69.9374 32.715 70.5382 32.0218 71.139 31.3132C72.2173 30.0501 72.1711 28.8485 71.0157 27.6624C69.691 26.3222 68.3508 24.9974 67.0106 23.6573C65.8399 22.4865 64.6229 22.4557 63.3598 23.534C62.7282 24.0886 62.0966 24.6277 61.4496 25.1823C60.6794 25.8447 60.4175 25.8909 59.5241 25.4288C58.0761 24.6585 56.5664 23.9961 54.9798 23.5648C54.225 23.3646 53.8861 22.9024 53.8399 22.163C53.7937 21.3466 53.7166 20.5302 53.6858 19.7137C53.6088 17.9268 52.6845 17.0026 50.8976 17.0026C49.0953 17.0026 47.293 17.0026 45.4907 17.0026C43.6884 17.0026 42.7641 17.9114 42.6871 19.6983C42.6409 20.6226 42.5331 21.5315 42.4715 22.4557C42.4252 22.9949 42.148 23.3338 41.6396 23.4878C39.8835 23.9961 38.2044 24.7047 36.587 25.5674C36.0478 25.8601 35.5703 25.7368 35.1236 25.3517C34.3996 24.7202 33.6756 24.0886 32.9361 23.457C31.7962 22.4865 30.5331 22.5173 29.4702 23.5648C28.0684 24.9512 26.682 26.3376 25.2956 27.7394C24.2327 28.8177 24.1865 30.0347 25.1724 31.2054C25.7731 31.9294 26.3893 32.638 27.0209 33.3466C27.483 33.8549 27.56 34.3787 27.2365 34.9795C26.3893 36.5353 25.7115 38.1528 25.2186 39.8626C25.0645 40.4172 24.7102 40.7253 24.1249 40.7715C23.1852 40.8331 22.2455 40.9409 21.3059 40.9872C19.6884 41.0642 18.7333 41.9884 18.7179 43.5751C18.6871 45.516 18.6871 47.4724 18.7179 49.4133C18.7333 50.9538 19.673 51.878 21.2134 51.9859C22.0761 52.0475 22.9387 52.0783 23.786 52.1399C24.7256 52.2169 25.0029 52.4172 25.2802 53.3261C25.7577 54.8973 26.3893 56.4069 27.1595 57.8703C27.6062 58.7176 27.56 59.0103 26.913 59.7497C26.3277 60.4275 25.7269 61.1053 25.1415 61.7985C24.2019 62.923 24.2481 64.1707 25.2648 65.2182C25.8039 65.7728 26.3739 66.3119 26.913 66.8665C27.0671 67.0205 27.2211 67.19 27.3598 67.3748C27.6833 67.837 27.6525 68.2991 27.2673 68.715C26.913 69.1001 26.3431 69.1772 25.9272 68.792C24.8797 67.837 23.7552 66.9435 23.0157 65.7266C22.0607 64.1553 22.1223 62.5379 23.1236 60.9666C23.6011 60.2426 24.2019 59.6264 24.7718 58.9795C25.0491 58.6714 25.1107 58.4249 24.9105 58.0552C24.3713 57.0385 23.9246 55.9756 23.5857 54.8819C23.4317 54.389 23.139 54.1887 22.6614 54.1733C22.0915 54.1425 21.5215 54.0963 20.9516 54.0501C18.872 53.8806 17.4856 52.8177 16.8232 50.8306C16.7924 50.7381 16.7462 50.6457 16.7 50.5533C16.7 47.8421 16.7 45.1463 16.7 42.4352C16.7308 42.3582 16.7616 42.2811 16.7924 42.2041C17.4394 40.2632 18.7487 39.1232 20.8129 38.923C21.5061 38.8614 22.1993 38.7843 22.8925 38.7381C23.2468 38.7227 23.4471 38.5533 23.5549 38.2144C23.94 37.0436 24.4021 35.9037 24.9721 34.81C25.1261 34.5173 25.1107 34.3017 24.8797 34.0398C24.3867 33.516 23.9246 32.9615 23.4779 32.4069C21.9682 30.543 22.0145 28.1707 23.6473 26.43C25.0491 24.905 26.5587 23.3954 28.0992 21.932C29.7937 20.3299 31.9965 20.2221 33.8758 21.5931C34.492 22.0398 35.062 22.5327 35.6011 23.0565C35.94 23.38 36.2327 23.3954 36.6332 23.1951C37.5112 22.7176 38.4509 22.3479 39.3906 22.009C40.3919 21.6547 40.4073 21.6547 40.4381 20.5764C40.4689 19.8216 40.4843 19.0513 40.6691 18.3273C41.1313 16.5404 42.3482 15.5392 44.0427 15.0154C46.7847 15 49.4958 15 52.1916 15Z" fill="#FFC545"/>
<path d="M52.1916 15C53.9939 15.57 55.2263 16.6791 55.6114 18.5892C55.75 19.267 55.7654 19.9756 55.7962 20.6688C55.8424 21.6393 55.8578 21.6701 56.7667 21.9782C57.7834 22.3171 58.7539 22.733 59.7089 23.2259C60.0786 23.4108 60.3251 23.3954 60.6332 23.1027C61.1724 22.5944 61.7269 22.1168 62.3123 21.6701C64.207 20.2375 66.4715 20.3145 68.1967 21.9474C69.7372 23.3954 71.216 24.8896 72.6794 26.43C74.3431 28.1861 74.3893 30.5738 72.8643 32.4685C72.4329 33.0077 71.9708 33.5469 71.5087 34.0552C71.2622 34.3171 71.216 34.5481 71.3854 34.8716C71.9554 35.9499 72.4175 37.059 72.7872 38.2144C72.9105 38.5687 73.1107 38.7535 73.4958 38.7689C74.2507 38.8151 75.0055 38.8768 75.7603 38.9692C78.0247 39.2311 79.673 41.0642 79.6884 43.344C79.7038 45.4544 79.7038 47.5648 79.6884 49.6752C79.673 51.9859 77.9169 53.8498 75.6062 54.0501C74.9901 54.0963 74.3893 54.1425 73.7731 54.1733C73.2494 54.2041 72.9105 54.389 72.741 54.9435C72.4175 56.0218 71.9708 57.0693 71.4471 58.0552C71.2314 58.4403 71.293 58.7022 71.6011 59.0257C72.0941 59.5494 72.5716 60.0886 73.0029 60.6585C74.4509 62.5533 74.3739 64.8177 72.741 66.543C71.2776 68.0988 69.768 69.6085 68.2122 71.0565C66.4715 72.6893 64.0838 72.7356 62.2198 71.2259C61.6653 70.7792 61.1107 70.3017 60.587 69.8241C60.3405 69.5931 60.1249 69.5777 59.8168 69.7317C58.7847 70.2709 57.7064 70.7484 56.5819 71.0873C56.0273 71.2567 55.8424 71.5956 55.827 72.1194C55.7962 72.7356 55.75 73.3517 55.7038 73.9525C55.5189 76.2632 53.6396 78.0193 51.329 78.0347C49.2186 78.0501 47.1082 78.0501 44.9978 78.0347C42.7179 78.0193 40.8848 76.3556 40.6229 74.0911C40.5305 73.3209 40.4689 72.5507 40.4073 71.7651C40.3765 71.4262 40.2224 71.2567 39.9143 71.1489C38.7282 70.7638 37.5729 70.2863 36.4638 69.7009C36.1865 69.5469 35.9862 69.6085 35.7551 69.8087C35.1236 70.3633 34.5074 70.9332 33.8296 71.4262C32.1505 72.6739 29.9015 72.5661 28.3148 71.2259C27.7141 70.7176 27.6062 70.1168 28.0222 69.6239C28.4227 69.1463 28.9772 69.1155 29.6088 69.5777C30.8412 70.4711 31.8424 70.4249 32.9978 69.439C33.691 68.8383 34.3996 68.2375 35.0928 67.6213C35.5703 67.2054 36.0632 67.1284 36.6178 67.4211C38.2044 68.2837 39.8681 68.9769 41.6088 69.4852C42.1017 69.6239 42.4098 69.9628 42.456 70.5019C42.5331 71.4878 42.6409 72.4583 42.6871 73.4442C42.7641 74.9692 43.6884 75.9397 45.2134 75.9705C47.1852 76.0013 49.1415 76.0013 51.1133 75.9705C52.6383 75.9551 53.578 75 53.6704 73.475C53.7166 72.6123 53.7783 71.7651 53.8245 70.9024C53.8553 70.1168 54.2096 69.6239 55.0106 69.4082C56.6127 68.9769 58.1377 68.2837 59.6011 67.5135C60.3867 67.0976 60.7102 67.1592 61.3726 67.7291C62.035 68.3145 62.6974 68.8845 63.3752 69.4544C64.6075 70.5019 65.8245 70.4711 66.9798 69.3312C68.3354 67.991 69.6756 66.6354 71.0311 65.2952C72.1711 64.1399 72.2173 62.923 71.1698 61.706C70.569 61.0128 69.9682 60.3042 69.3521 59.611C68.8899 59.1027 68.8437 58.5789 69.1672 57.9782C69.9991 56.4377 70.6768 54.8357 71.1544 53.1566C71.3546 52.448 71.863 52.2015 72.5254 52.1553C73.3418 52.0937 74.1582 52.0321 74.9747 52.0013C76.7308 51.9243 77.655 51 77.6704 49.2439C77.6858 47.3954 77.6858 45.5469 77.6704 43.7137C77.655 42.0038 76.7308 41.0796 75.0209 40.9872C74.0966 40.9409 73.1878 40.8331 72.2635 40.7715C71.7089 40.7253 71.3392 40.448 71.1852 39.9243C70.6768 38.1682 69.9682 36.4891 69.1056 34.8716C68.8129 34.3325 68.9207 33.8549 69.3213 33.4082C69.9374 32.715 70.5382 32.0218 71.139 31.3132C72.2173 30.0501 72.1711 28.8485 71.0157 27.6624C69.691 26.3222 68.3508 24.9974 67.0106 23.6573C65.8399 22.4865 64.6229 22.4557 63.3598 23.534C62.7282 24.0886 62.0966 24.6277 61.4496 25.1823C60.6794 25.8447 60.4175 25.8909 59.5241 25.4288C58.0761 24.6585 56.5664 23.9961 54.9798 23.5648C54.225 23.3646 53.8861 22.9024 53.8399 22.163C53.7937 21.3466 53.7166 20.5302 53.6858 19.7137C53.6088 17.9268 52.6845 17.0026 50.8976 17.0026C49.0953 17.0026 47.293 17.0026 45.4907 17.0026C43.6884 17.0026 42.7641 17.9114 42.6871 19.6983C42.6409 20.6226 42.5331 21.5315 42.4715 22.4557C42.4252 22.9949 42.148 23.3338 41.6396 23.4878C39.8835 23.9961 38.2044 24.7047 36.587 25.5674C36.0478 25.8601 35.5703 25.7368 35.1236 25.3517C34.3996 24.7202 33.6756 24.0886 32.9361 23.457C31.7962 22.4865 30.5331 22.5173 29.4702 23.5648C28.0684 24.9512 26.682 26.3376 25.2956 27.7394C24.2327 28.8177 24.1865 30.0347 25.1724 31.2054C25.7731 31.9294 26.3893 32.638 27.0209 33.3466C27.483 33.8549 27.56 34.3787 27.2365 34.9795C26.3893 36.5353 25.7115 38.1528 25.2186 39.8626C25.0645 40.4172 24.7102 40.7253 24.1249 40.7715C23.1852 40.8331 22.2455 40.9409 21.3059 40.9872C19.6884 41.0642 18.7333 41.9884 18.7179 43.5751C18.6871 45.516 18.6871 47.4724 18.7179 49.4133C18.7333 50.9538 19.673 51.878 21.2134 51.9859C22.0761 52.0475 22.9387 52.0783 23.786 52.1399C24.7256 52.2169 25.0029 52.4172 25.2802 53.3261C25.7577 54.8973 26.3893 56.4069 27.1595 57.8703C27.6062 58.7176 27.56 59.0103 26.913 59.7497C26.3277 60.4275 25.7269 61.1053 25.1415 61.7985C24.2019 62.923 24.2481 64.1707 25.2648 65.2182C25.8039 65.7728 26.3739 66.3119 26.913 66.8665C27.0671 67.0205 27.2211 67.19 27.3598 67.3748C27.6833 67.837 27.6525 68.2991 27.2673 68.715C26.913 69.1001 26.3431 69.1772 25.9272 68.792C24.8797 67.837 23.7552 66.9435 23.0157 65.7266C22.0607 64.1553 22.1223 62.5379 23.1236 60.9666C23.6011 60.2426 24.2019 59.6264 24.7718 58.9795C25.0491 58.6714 25.1107 58.4249 24.9105 58.0552C24.3713 57.0385 23.9246 55.9756 23.5857 54.8819C23.4317 54.389 23.139 54.1887 22.6614 54.1733C22.0915 54.1425 21.5215 54.0963 20.9516 54.0501C18.872 53.8806 17.4856 52.8177 16.8232 50.8306C16.7924 50.7381 16.7462 50.6457 16.7 50.5533C16.7 47.8421 16.7 45.1463 16.7 42.4352C16.7308 42.3582 16.7616 42.2811 16.7924 42.2041C17.4394 40.2632 18.7487 39.1232 20.8129 38.923C21.5061 38.8614 22.1993 38.7843 22.8925 38.7381C23.2468 38.7227 23.4471 38.5533 23.5549 38.2144C23.94 37.0436 24.4021 35.9037 24.9721 34.81C25.1261 34.5173 25.1107 34.3017 24.8797 34.0398C24.3867 33.516 23.9246 32.9615 23.4779 32.4069C21.9682 30.543 22.0145 28.1707 23.6473 26.43C25.0491 24.905 26.5587 23.3954 28.0992 21.932C29.7937 20.3299 31.9965 20.2221 33.8758 21.5931C34.492 22.0398 35.062 22.5327 35.6011 23.0565C35.94 23.38 36.2327 23.3954 36.6332 23.1951C37.5112 22.7176 38.4509 22.3479 39.3906 22.009C40.3919 21.6547 40.4073 21.6547 40.4381 20.5764C40.4689 19.8216 40.4843 19.0513 40.6691 18.3273C41.1313 16.5404 42.3482 15.5392 44.0427 15.0154C46.7847 15 49.4958 15 52.1916 15Z" stroke="#FFC545" mask="url(#path-2-outside-1_44_1346)"/>
<path d="M54.8116 38.5997L54.8117 38.5996C54.7732 38.5646 54.7329 38.5289 54.6915 38.4923C54.5639 38.3793 54.4263 38.2575 54.3019 38.1207L54.3014 38.1201C54.0583 37.8509 53.9094 37.5479 53.8944 37.2306C53.8793 36.909 54.0034 36.6069 54.2421 36.3498C54.4755 36.0984 54.7618 35.9377 55.0815 35.9125C55.4011 35.8873 55.7191 36.0003 56.011 36.2298C57.2628 37.1846 58.3492 38.3165 59.1541 39.6893C62.7159 45.6839 61.2702 52.881 55.652 57.024C50.2125 61.0484 42.1254 59.9174 37.9911 54.557L37.9909 54.5567C33.0315 48.1064 34.7591 39.2443 41.8385 35.1786C44.9524 33.3858 48.319 33.0896 51.7813 34.0608L54.8116 38.5997ZM54.8116 38.5997L54.8167 38.604M54.8116 38.5997L54.8167 38.604M54.8167 38.604C57.2099 40.6661 58.4254 43.2758 58.473 46.3417C58.4583 46.5682 58.4484 46.7796 58.4388 46.9814C58.4179 47.4252 58.3992 47.8231 58.3374 48.2352C57.4199 53.9764 51.5824 57.9171 45.9173 56.5948L45.9171 56.5947C40.348 55.3003 36.9194 50.0368 37.988 44.4228L37.9881 44.422C38.8443 39.8407 43.0108 36.3045 47.685 36.169C48.8732 36.139 50.0372 36.3193 51.2164 36.5644C51.5986 36.6443 51.9524 36.5944 52.2372 36.4275C52.5225 36.2602 52.7189 35.9868 52.8035 35.6579L52.8043 35.6547M54.8167 38.604L52.8043 35.6547M52.8043 35.6547C52.8891 35.3062 52.8333 34.9586 52.6488 34.6697M52.8043 35.6547L52.6488 34.6697M52.6488 34.6697C52.465 34.3818 52.1636 34.1676 51.7817 34.0609L52.6488 34.6697Z" fill="#FFC545" stroke="#FFC545" stroke-width="0.5"/>
</svg>
