<svg width="96" height="95" viewBox="0 0 96 95" fill="none" xmlns="http://www.w3.org/2000/svg">
<rect x="0.699951" width="95" height="95" rx="17.6744" fill="#0F69AF"/>
<path d="M16.165 42.018C16.4185 41.5619 16.7733 41.224 17.1957 40.9198C27.2146 33.6041 37.2336 26.2715 47.2357 18.9389C48.1987 18.2293 48.8745 18.2293 49.8714 18.9727C59.299 25.866 68.7097 32.7594 78.1374 39.6527C78.7625 40.1089 79.4045 40.565 80.0297 41.0381C81.0096 41.7815 81.2461 42.829 80.6379 43.6569C80.0128 44.5017 78.9653 44.5861 77.9515 43.8427C75.451 42.018 72.9505 40.1764 70.45 38.3517C63.3032 33.1311 56.1565 27.9104 49.0266 22.6728C48.6549 22.4025 48.4184 22.4194 48.0467 22.6897C38.5346 29.6506 29.0055 36.6284 19.4934 43.6062C19.1048 43.8934 18.7331 44.2144 18.2432 44.3158C17.3477 44.5017 16.6888 44.1469 16.165 43.1669C16.165 42.7783 16.165 42.4066 16.165 42.018Z" fill="#FFC545"/>
<path d="M73.8629 60.282C73.8629 64.8606 73.8629 69.4224 73.8629 74.001C73.8629 75.6061 73.2208 76.2819 71.5989 76.2819C66.3106 76.2988 61.0224 76.2988 55.7341 76.2819C54.1797 76.2819 53.5546 75.623 53.5546 74.0855C53.5546 69.0507 53.5546 64.0158 53.5546 58.981C53.5546 58.3221 53.5208 57.6801 53.3687 57.038C52.9295 55.0782 51.0034 52.9831 47.8946 53.2873C45.7151 53.5069 43.8397 55.4161 43.6201 57.7645C43.5694 58.2883 43.5356 58.8121 43.5356 59.3358C43.5356 64.2693 43.5356 69.2027 43.5356 74.1362C43.5356 75.6061 42.9105 76.2819 41.4237 76.2819C36.0847 76.2988 30.7627 76.2988 25.4237 76.2819C23.8525 76.2819 23.2104 75.6061 23.2104 74.0179C23.2104 64.8437 23.2104 55.6864 23.2104 46.5122C23.2104 46.1574 23.2273 45.8026 23.3456 45.4478C23.6159 44.6875 24.4269 44.1806 25.1872 44.2989C26.032 44.4172 26.6402 45.0592 26.6909 45.9209C26.7078 46.1912 26.7078 46.4615 26.7078 46.7487C26.7078 55.112 26.7078 63.4921 26.7078 71.8553C26.7078 72.7339 26.7078 72.7339 27.5695 72.7339C31.4554 72.7339 35.3245 72.7339 39.2104 72.7339C40.0383 72.7339 40.0383 72.7339 40.0552 71.8891C40.0552 67.3442 40.0383 62.7825 40.0552 58.2376C40.0721 54.1827 42.8767 50.753 46.8471 49.9082C51.6116 48.8945 56.3592 52.2904 56.9506 57.0887C57.0182 57.6632 57.0519 58.2207 57.0519 58.7952C57.0519 63.1542 57.0519 67.5132 57.0519 71.8891C57.0519 72.7508 57.0519 72.7508 57.8798 72.7508C61.7827 72.7508 65.6855 72.7339 69.5714 72.7677C70.2135 72.7677 70.3993 72.5987 70.3993 71.9567C70.3824 63.5766 70.3824 55.1796 70.3824 46.7994C70.3824 46.5291 70.3824 46.2588 70.3993 45.9716C70.45 45.093 71.092 44.4341 71.9537 44.3327C72.714 44.2482 73.4912 44.772 73.7615 45.5323C73.8798 45.8702 73.8798 46.2419 73.8798 46.5967C73.8629 51.1415 73.8629 55.7202 73.8629 60.282Z" fill="#FFC545"/>
</svg>
