<svg width="35" height="35" viewBox="0 0 35 35" fill="none" xmlns="http://www.w3.org/2000/svg">
<path d="M17.272 34.544C26.8111 34.544 34.544 26.8111 34.544 17.272C34.544 7.73294 26.8111 0 17.272 0C7.73294 0 0 7.73294 0 17.272C0 26.8111 7.73294 34.544 17.272 34.544Z" fill="#5D56A0"/>
<path d="M21.5931 6.78375C21.9362 6.84799 22.2714 6.94857 22.5931 7.08377C23.1579 7.33041 23.6382 7.737 23.9746 8.25342C24.311 8.76983 24.4888 9.37344 24.4861 9.98975C24.5211 12.6097 24.4981 15.2308 24.4961 17.8518C24.5012 17.9626 24.4837 18.0733 24.4446 18.1772C24.4056 18.281 24.3459 18.3759 24.2691 18.456C24.1923 18.536 24.1001 18.5997 23.9979 18.643C23.8958 18.6864 23.7859 18.7085 23.675 18.7081C23.564 18.7077 23.4543 18.6847 23.3525 18.6407C23.2507 18.5966 23.1589 18.5322 23.0827 18.4516C23.0065 18.371 22.9475 18.2757 22.9092 18.1715C22.871 18.0674 22.8543 17.9566 22.8601 17.8458C22.8601 15.3004 22.8601 12.7548 22.8601 10.2088C22.8809 9.96944 22.8491 9.72846 22.7671 9.50266C22.6851 9.27685 22.5548 9.07165 22.3853 8.9014C22.2158 8.73115 22.0112 8.59995 21.7858 8.51694C21.5604 8.43392 21.3196 8.40108 21.0801 8.42075H11.2731C11.0371 8.40322 10.8001 8.43688 10.5783 8.51938C10.3565 8.60187 10.1551 8.73126 9.98793 8.89874C9.82074 9.06622 9.69166 9.26783 9.60955 9.48978C9.52743 9.71172 9.49419 9.94878 9.51212 10.1848C9.51212 14.9074 9.51212 19.6301 9.51212 24.3528C9.49475 24.5888 9.52853 24.8258 9.61115 25.0476C9.69376 25.2694 9.82326 25.4708 9.99082 25.638C10.1584 25.8051 10.36 25.9342 10.582 26.0163C10.804 26.0984 11.0411 26.1317 11.2771 26.1138C12.4301 26.1138 13.5841 26.1138 14.7371 26.1138C14.876 26.1096 15.0136 26.141 15.1368 26.2052C15.26 26.2694 15.3647 26.3641 15.4408 26.4803C15.517 26.5964 15.5621 26.7302 15.5717 26.8688C15.5814 27.0074 15.5554 27.1461 15.4961 27.2718C15.4371 27.4154 15.336 27.5378 15.206 27.6227C15.076 27.7077 14.9234 27.7513 14.7681 27.7478C13.5121 27.7538 12.2561 27.7698 11.0011 27.7478C10.167 27.7127 9.37812 27.3586 8.7975 26.7586C8.21689 26.1587 7.88884 25.3586 7.88112 24.5238C7.87112 21.6438 7.88112 18.7638 7.88112 15.8838C7.88112 13.9998 7.90913 12.1158 7.87313 10.2328C7.83822 9.41387 8.1081 8.6111 8.63062 7.97961C9.15313 7.34813 9.89117 6.93275 10.7021 6.81375C10.7181 6.81375 10.7331 6.79176 10.7481 6.78076H10.8711C10.91 6.79743 10.9518 6.80603 10.9941 6.80603C11.0364 6.80603 11.0783 6.79743 11.1171 6.78076L21.5931 6.78375Z" fill="white"/>
<path d="M11.1093 6.78369C11.0756 6.81426 11.0318 6.83121 10.9863 6.83121C10.9408 6.83121 10.897 6.81426 10.8633 6.78369H11.1093Z" fill="white"/>
<path d="M21.0162 27.758C19.9827 27.734 18.9792 27.4067 18.1302 26.817C17.1217 26.1343 16.2443 25.2756 15.5402 24.282C15.4277 24.1497 15.3635 23.9831 15.3583 23.8096C15.353 23.636 15.4069 23.4658 15.5112 23.327C16.3886 22.0251 17.5873 20.9718 18.9912 20.269C19.6576 19.9563 20.3861 19.7983 21.1222 19.807C22.313 19.8636 23.4531 20.3063 24.3702 21.068C25.1754 21.6917 25.8864 22.4282 26.4812 23.255C26.5995 23.3864 26.6693 23.5544 26.6792 23.731C26.689 23.9076 26.6382 24.0822 26.5352 24.226C25.6777 25.5079 24.5075 26.5501 23.1352 27.254C22.4755 27.5786 21.7514 27.7509 21.0162 27.758ZM21.0272 21.445C20.6105 21.4478 20.1985 21.5335 19.8152 21.697C18.832 22.161 17.969 22.8454 17.2932 23.697C17.2252 23.776 17.2632 23.819 17.3082 23.869L17.3212 23.883C17.8365 24.5128 18.4448 25.0604 19.1252 25.507C19.6872 25.8875 20.3467 26.0986 21.0252 26.115C21.3941 26.1114 21.7594 26.041 22.1032 25.907C23.1461 25.4544 24.059 24.7475 24.7582 23.851C24.8212 23.78 24.7852 23.74 24.7472 23.698L24.7412 23.691L24.7322 23.681C24.2285 23.0687 23.6383 22.533 22.9802 22.091C22.4059 21.6925 21.7288 21.4682 21.0302 21.445H21.0272Z" fill="white"/>
<path d="M16.1662 13.3367C14.7742 13.3367 13.3821 13.3367 11.9901 13.3367C11.8479 13.3419 11.7069 13.3097 11.581 13.2435C11.455 13.1772 11.3487 13.0791 11.2724 12.959C11.1962 12.8388 11.1527 12.7008 11.1463 12.5587C11.14 12.4165 11.1709 12.2752 11.2362 12.1487C11.3053 12.0063 11.4153 11.8875 11.552 11.8076C11.6887 11.7277 11.8461 11.6901 12.0042 11.6997H16.3642C17.7082 11.6997 19.0522 11.6997 20.3972 11.6997C20.5793 11.6983 20.7566 11.7577 20.9012 11.8685C21.0457 11.9793 21.1491 12.1352 21.195 12.3114C21.2409 12.4876 21.2267 12.6742 21.1547 12.8414C21.0826 13.0086 20.9568 13.1471 20.7972 13.2347C20.6508 13.3084 20.4878 13.3428 20.3241 13.3347C18.9395 13.3347 17.5535 13.3354 16.1662 13.3367Z" fill="white"/>
<path d="M16.209 14.975C17.601 14.975 18.993 14.975 20.385 14.975C20.5468 14.9674 20.707 15.0101 20.8434 15.0974C20.9799 15.1846 21.0859 15.312 21.147 15.462C21.2167 15.6043 21.241 15.7646 21.2165 15.9211C21.1919 16.0776 21.1199 16.2228 21.01 16.337C20.9253 16.4311 20.8205 16.5049 20.7032 16.5527C20.5859 16.6005 20.4594 16.6211 20.333 16.613C18.333 16.613 16.333 16.613 14.333 16.613H12.102C11.512 16.613 11.144 16.295 11.146 15.789C11.148 15.283 11.516 14.975 12.092 14.975H16.209Z" fill="white"/>
<path d="M14.0971 19.8896C13.4091 19.8896 12.7201 19.8896 12.0321 19.8896C11.9186 19.8987 11.8044 19.8841 11.6969 19.8467C11.5893 19.8094 11.4907 19.7501 11.4073 19.6727C11.3238 19.5952 11.2574 19.5013 11.2122 19.3968C11.167 19.2923 11.1439 19.1796 11.1445 19.0657C11.1452 18.9519 11.1694 18.8394 11.2158 18.7354C11.2622 18.6314 11.3297 18.5382 11.4139 18.4617C11.4982 18.3851 11.5975 18.3269 11.7054 18.2908C11.8134 18.2546 11.9277 18.2413 12.0411 18.2516H16.1921C16.3065 18.2409 16.4218 18.2544 16.5307 18.291C16.6397 18.3276 16.7397 18.3866 16.8244 18.4642C16.9091 18.5418 16.9767 18.6363 17.0227 18.7416C17.0686 18.8469 17.0921 18.9607 17.0915 19.0756C17.0908 19.1905 17.0661 19.304 17.019 19.4088C16.9718 19.5135 16.9033 19.6073 16.8177 19.684C16.7321 19.7607 16.6315 19.8186 16.5222 19.854C16.4128 19.8894 16.2973 19.9015 16.1831 19.8896H14.0971Z" fill="white"/>
<path d="M21.0569 24.9867C20.8181 24.9857 20.585 24.9138 20.3871 24.7802C20.1892 24.6466 20.0354 24.4573 19.9453 24.2362C19.8551 24.0151 19.8326 23.7722 19.8806 23.5383C19.9286 23.3044 20.0449 23.09 20.2149 22.9223C20.3848 22.7545 20.6007 22.6411 20.8353 22.5962C21.0698 22.5513 21.3124 22.5771 21.5322 22.6702C21.7521 22.7633 21.9394 22.9196 22.0704 23.1192C22.2013 23.3189 22.2701 23.5529 22.2679 23.7917C22.2642 24.1103 22.1349 24.4145 21.9082 24.6383C21.6814 24.862 21.3755 24.9873 21.0569 24.9867Z" fill="white"/>
</svg>
