<svg width="245" height="39" viewBox="0 0 245 39" fill="none" xmlns="http://www.w3.org/2000/svg">
<path d="M209.825 37.9155C212.262 37.9155 214.393 36.6973 216.068 35.1746C216.068 35.1746 217.134 34.1087 218.505 32.7383C219.266 31.9769 220.332 31.3678 221.55 31.2156C221.702 31.2156 222.312 31.2156 222.312 31.2156C222.768 31.2156 223.073 31.2156 223.53 31.3678C224.748 31.5201 225.966 31.8247 227.184 32.4337L237.843 36.8496C237.843 36.8496 240.432 38.0678 242.564 38.0678H244.086C244.543 38.0678 245 37.611 245 37.1542V33.1951C245 30.4542 243.477 27.8656 240.736 26.7997L238.452 25.8861C236.473 25.1247 234.341 23.7543 233.275 22.6884C233.275 22.6884 231.143 20.0998 233.58 17.6634L243.02 8.2226C244.239 6.85216 244.848 5.32945 244.848 3.65446C244.848 3.65446 244.848 2.89311 244.695 2.28402C244.543 1.82721 244.239 1.37039 243.934 1.06585C243.325 0.456764 242.564 0.152222 241.498 0.152222H239.975C237.539 0.152222 235.407 1.21812 233.732 2.89311C233.732 2.89311 227.489 9.13623 225.966 10.8112L217.287 19.4907V5.78626C217.287 2.74083 214.85 0.152222 211.653 0.152222H209.216C208.607 0.152222 207.693 0.152222 207.237 0.456764C206.932 0.609036 206.932 1.06585 206.932 1.37039V37.3064C206.932 37.7632 207.237 38.0678 207.693 38.0678H209.825V37.9155Z" fill="#FFC545"/>
<path d="M165.058 33.3474C165.058 33.3474 163.078 32.7383 159.119 29.6929C156.987 28.0179 155.617 26.952 154.856 26.3429C155.617 25.8861 158.053 24.9725 160.185 22.3839C161.556 20.8612 162.317 18.8816 162.317 16.4453C162.317 14.1612 161.708 12.0294 160.337 10.0499C158.967 8.07038 157.292 6.24312 155.16 4.87268C153.028 3.34997 150.744 2.1318 148.156 1.37044C145.567 0.456814 142.978 0 140.542 0C140.542 0 125.315 0 125.163 0C124.706 0 124.401 0.304543 124.401 0.761357V26.4952V32.1292V34.1088V36.6974C124.401 37.0019 124.401 37.4587 124.706 37.611C125.163 37.9156 126.229 37.9156 126.838 37.9156C127.751 37.9156 128.665 37.7633 129.426 37.611C130.797 37.1542 131.863 36.2406 132.624 35.1747C134.147 33.1952 134.451 31.0634 134.451 28.7793V13.2476C134.451 13.0953 134.451 12.4862 134.604 12.1817C134.756 11.8772 134.908 11.5726 134.908 11.5726C136.126 9.44082 140.085 8.52719 144.349 9.74537C150.135 11.1158 151.81 15.0749 151.201 16.9021C150.592 18.7294 148.46 19.9475 145.872 19.9475C144.653 19.9475 143.435 19.7953 142.065 19.3385C142.065 19.3385 141.151 19.1862 140.542 18.8816C140.238 18.7294 139.628 18.5771 139.172 18.5771C138.715 18.5771 138.563 18.8816 138.563 19.643V23.7543C138.563 25.1248 139.172 26.3429 139.933 27.1043L152.419 37.0019C153.637 37.9156 155.008 38.3724 156.378 38.3724H164.601C165.21 38.3724 165.515 37.9156 165.515 37.3065V34.7179C165.667 33.8042 165.362 33.3474 165.058 33.3474Z" fill="#FFC545"/>
<path d="M115.113 28.1702H104.149C102.626 28.1702 101.104 27.7134 99.7332 27.1043C98.5151 26.6475 96.6878 24.9725 96.231 24.3634C95.1651 23.2975 94.4037 21.9271 93.9469 20.5566C93.3378 19.0339 93.0333 17.6635 93.0333 15.9885C93.0333 14.009 93.6424 12.4862 94.7083 11.4203C94.8606 11.2681 95.3174 10.8113 95.9265 10.5067C96.5355 10.2022 97.1446 10.0499 97.4492 9.89764C98.0583 9.74536 98.8196 9.59309 99.581 9.59309C100.342 9.59309 101.104 9.74536 101.713 9.89764C102.931 10.2022 104.149 10.659 105.367 11.4203C107.042 12.4862 108.87 14.1612 110.088 15.6839H98.6673C97.906 15.6839 97.6014 15.9885 97.6014 16.5976C97.6014 17.8157 97.7537 18.5771 98.2105 19.4907C98.6673 20.4044 100.951 23.7543 105.367 23.7543H116.026C117.854 23.7543 119.224 23.2975 119.833 22.2316C120.594 21.1657 120.747 20.4044 120.747 19.0339C120.747 16.9021 120.138 14.7703 119.072 12.4862C117.854 10.2022 116.331 8.07038 114.351 6.24312C112.372 4.41587 110.088 2.89316 107.499 1.67498C105.063 0.609085 102.322 0 99.4287 0H83.7448C83.2879 0 82.9834 0.304543 82.9834 0.761357V16.293C82.9834 19.1862 83.5925 21.9271 84.6584 24.5157C85.7243 27.1043 87.247 29.3884 89.2265 31.3679C91.2061 33.3474 93.4901 34.8701 95.9265 35.936C98.5151 37.1542 101.256 37.7633 104.149 37.7633H119.833C120.29 37.7633 120.594 37.4587 120.594 37.0019V33.8042C120.594 31.977 120.138 30.6065 119.072 29.5406C118.31 28.627 116.94 28.1702 115.113 28.1702Z" fill="#FFC545"/>
<path d="M79.4811 5.63404C79.4811 2.58861 77.0448 0 73.8471 0H67.9085C67.604 0 67.2994 0.152271 67.1472 0.304543L55.27 11.4204C51.3109 15.2271 45.9814 17.3589 39.8906 17.3589C33.6475 17.3589 28.0134 15.0749 23.9021 10.9635C23.9021 10.9635 15.2226 2.74088 15.0704 2.74088C13.3954 1.0659 11.1113 0 8.5227 0H1.36595C0.756863 0 0.300049 0.456814 0.300049 1.0659V32.2815C0.300049 35.327 2.73639 37.9156 5.93409 37.9156H8.06589H9.5886C10.1977 37.9156 10.6545 37.4587 10.6545 36.8497V25.7339C10.6545 22.8407 13.0908 20.4044 15.8317 20.4044C21.1612 20.4044 24.968 24.9725 28.4702 28.0179C32.7338 31.6724 35.9315 35.327 39.8906 35.327C43.8496 35.327 47.1996 31.6724 51.3109 28.0179C54.8132 24.9725 58.62 20.4044 63.9495 20.4044C66.8426 20.4044 69.1267 22.8407 69.1267 25.7339V32.4338C69.1267 35.4792 71.563 38.0678 74.7607 38.0678H77.1971C77.8062 38.0678 78.4152 38.0678 78.4152 38.0678C79.0243 38.0678 79.4811 37.611 79.4811 37.0019V5.63404Z" fill="#FFC545"/>
<path d="M202.821 22.0793H197.035C194.903 22.0793 193.533 22.9929 192.923 24.8202C192.619 26.0383 191.858 26.952 190.944 27.7133C190.03 28.4747 188.812 28.7792 187.442 28.7792C186.071 28.7792 184.701 28.3224 183.33 27.5611C181.96 26.7997 180.742 25.8861 179.676 24.6679C178.61 23.4497 177.696 22.0793 176.935 20.5566C176.326 19.0339 175.869 17.5112 175.869 16.1407C175.869 14.3135 176.478 12.7907 177.544 11.5726C178.61 10.3544 180.133 9.89759 181.808 9.89759C183.787 9.89759 185.767 10.6589 187.594 12.0294C188.355 12.6385 189.269 12.943 190.03 12.943C190.944 12.943 191.858 12.4862 192.771 11.4203L196.73 7.61352C197.035 7.30897 197.035 7.1567 197.035 7.00443C196.883 6.85216 196.883 6.54762 196.578 6.39535C194.446 4.41582 192.162 3.04538 189.726 1.82721C187.289 0.761307 184.549 0.152222 181.808 0.152222H166.428C165.819 0.152222 165.515 0.456764 165.515 1.21812V16.5975C165.515 19.643 166.124 22.3838 167.342 24.9724C168.56 27.7133 170.083 29.9974 172.215 31.9769C174.194 33.9565 176.63 35.6314 179.219 36.8496C181.808 38.0678 184.549 38.6769 187.289 38.6769C189.574 38.6769 191.553 38.3723 193.533 37.611C195.512 36.8496 197.035 35.7837 198.558 34.4133C199.928 33.0428 201.146 31.3678 201.907 29.5406C202.669 27.7133 203.278 25.5815 203.43 23.2975C203.582 22.3838 203.278 22.0793 202.821 22.0793Z" fill="#FFC545"/>
</svg>
